<svg width="60" height="68" viewBox="0 0 60 68" fill="none" xmlns="http://www.w3.org/2000/svg">
<path d="M27.2211 20.243L22.3755 15.396C23.5156 11.6895 22.6605 7.55537 19.6677 4.70422C16.3897 1.42539 11.5441 0.712606 7.55364 2.56586L15.1071 10.1214L10.119 15.1109L2.423 7.55537C0.570265 11.547 1.28285 16.3939 4.56076 19.6728C6.98357 22.0963 10.404 23.0942 13.6819 22.6665L17.2449 26.2304" stroke="#9C7C56" stroke-width="2" stroke-miterlimit="10" stroke-linejoin="round"/>
<path d="M29.2163 56.4528L31.2116 54.457C32.9218 52.7463 36.7698 54.8846 39.3351 52.4612C41.7579 50.0377 41.3279 50.4674 41.3279 50.4674" stroke="white" stroke-width="2" stroke-miterlimit="10" stroke-linejoin="round"/>
<path d="M30.2144 39.3457L49.4543 58.4484C51.1645 60.1591 54.2999 59.7314 56.4376 57.4505L56.5802 57.308C58.8604 55.027 59.1455 52.0333 57.4353 50.3226L49.3117 42.1969" stroke="#9C7C56" stroke-width="2" stroke-miterlimit="10" stroke-linejoin="round"/>
<path d="M44.3231 27.2281L45.3208 26.2302C45.8908 25.6599 45.8908 24.8046 45.3208 24.2344L42.3279 21.2407C41.7578 20.6704 40.9027 20.6704 40.3326 21.2407L38.3374 23.2365" stroke="white" stroke-width="2" stroke-miterlimit="10" stroke-linejoin="round"/>
<path d="M35.3451 26.2302L38.3379 23.2365C38.908 22.6663 38.908 21.8109 38.3379 21.2407L35.3451 18.247C34.775 17.6768 33.9199 17.6768 33.3498 18.247L30.3569 21.2407" stroke="white" stroke-width="2" stroke-miterlimit="10" stroke-linejoin="round"/>
<path d="M37.7671 36.7798L40.3324 39.3459C40.9025 39.9161 41.7576 39.9161 42.3277 39.3459L49.4535 32.218C50.0236 31.6477 50.0236 30.7924 49.4535 30.2222L46.4607 27.2285C45.8906 26.6582 45.0355 26.6582 44.4654 27.2285L40.4749 31.2201" stroke="white" stroke-width="2" stroke-miterlimit="10" stroke-linejoin="round"/>
<path d="M27.2216 44.3353C31.4971 40.0586 31.7821 32.7881 28.2192 29.2242C28.9318 29.937 30.4995 31.5051 32.2097 33.2158C35.7726 36.7797 40.4757 34.4988 41.3308 32.2179C40.1907 31.0774 30.2144 21.0984 30.2144 21.0984C28.9318 19.8154 27.6491 19.5303 25.5114 19.8154C23.3736 20.1005 19.9532 20.5282 18.813 21.3835C17.6729 22.2389 16.5327 26.6582 16.5327 29.937C16.5327 33.9286 15.9627 37.35 15.1076 38.2053L13.1123 40.2011" stroke="white" stroke-width="2" stroke-miterlimit="10" stroke-linejoin="round"/>
<path d="M49.4544 32.2178L53.4449 36.2094C54.015 36.7796 54.015 37.635 53.4449 38.2052L46.4615 45.1905C45.8914 45.7608 45.0363 45.7608 44.4663 45.1905L41.3309 42.3394C40.7608 41.7691 40.7608 40.9138 41.3309 40.3436L42.3285 39.3457" stroke="white" stroke-width="2" stroke-miterlimit="10" stroke-linejoin="round"/>
<path d="M31.205 58.4673L11.0444 38.3125L2.98477 46.379L23.1453 66.5338L31.205 58.4673Z" stroke="white" stroke-width="2" stroke-miterlimit="10" stroke-linejoin="round"/>
<path d="M50.4517 51.4629L53.4445 54.4566" stroke="#9C7C56" stroke-width="2" stroke-miterlimit="10" stroke-linejoin="round"/>
<path d="M10.1187 45.333L12.1139 47.3288" stroke="white" stroke-width="2" stroke-miterlimit="10" stroke-linejoin="round"/>
</svg>
