<svg width="63" height="59" viewBox="0 0 63 59" fill="none" xmlns="http://www.w3.org/2000/svg">
<path d="M32.0498 28.6768L36.4516 38.9675L47.3184 39.7907L39.0651 47.3372L41.5411 57.6279L32.0498 52.414L22.6961 57.6279L25.0345 47.3372L16.7812 39.7907L27.7856 38.9675L32.0498 28.6768Z" stroke="#9C7C56" stroke-width="2" stroke-miterlimit="10" stroke-linejoin="round"/>
<path d="M41.8164 34.3024L45.3928 34.028L48.9692 25.521L52.5457 34.028L61.6243 34.714L54.8841 40.8884L56.8099 49.5326L48.9692 45.1419L44.7051 47.6117" stroke="#9C7C56" stroke-width="2" stroke-miterlimit="10" stroke-linejoin="round"/>
<path d="M21.1829 34.3024L17.6064 34.028L14.03 25.521L10.4536 34.028L1.375 34.714L8.11518 40.8884L6.18941 49.5326L14.03 45.1419L18.2942 47.6117" stroke="#9C7C56" stroke-width="2" stroke-miterlimit="10" stroke-linejoin="round"/>
<path d="M41.6795 30.1862V22.6397C41.6795 20.5816 36.3149 17.8374 32.0507 17.8374C27.7865 17.8374 22.4219 20.5816 22.4219 22.6397V30.1862" stroke="white" stroke-width="2" stroke-miterlimit="10"/>
<path d="M32.0491 1.37207C29.1604 1.37207 26.5469 3.43021 26.5469 5.76277V9.193C26.5469 11.6628 29.1604 13.5837 32.0491 13.5837C34.9377 13.5837 37.5512 11.5256 37.5512 9.193V5.76277C37.5512 3.43021 34.8001 1.37207 32.0491 1.37207Z" stroke="white" stroke-width="2" stroke-miterlimit="10"/>
</svg>
