<svg width="208" height="51" viewBox="0 0 208 51" fill="none" xmlns="http://www.w3.org/2000/svg">
<g clip-path="url(#clip0_622_20075)">
<path d="M0 0H44.8861V50.5613H0V0ZM2.06373 2.06373V48.4976H42.8224V2.06373H2.06373Z" fill="#ffffff"/>
<path d="M29.7528 7.63012L24.8452 14.946L31.5047 12.947L25.3747 25.5211L27.8085 16.054L21.3293 17.8542L25.942 8.15798C24.9781 8.37304 23.9271 8.5442 22.6627 8.5446C19.2558 8.6627 17.1583 7.20879 14.8075 7.22276C14.4715 7.22475 14.1356 7.26385 13.7849 7.33487C10.98 7.90303 8.99702 10.1437 8.80989 12.5337C8.4536 17.1137 10.6472 21.7503 11.2278 25.9249C11.8095 30.0999 11.3989 30.6649 12.0632 35.6877C12.7511 40.7617 14.1743 43.4572 16.265 43.1065C18.3557 42.7554 18.6198 36.7107 19.2698 32.9822C19.5474 30.8069 20.5976 28.2849 22.6612 28.2817C24.7247 28.2853 25.7749 30.8069 26.0525 32.9822C26.7025 36.7123 26.979 42.7554 29.0701 43.1065C31.1608 43.4576 32.5716 40.7621 33.2595 35.6877C33.9238 30.6649 33.5132 30.1019 34.0949 25.9249C34.6767 21.7499 36.8703 17.1153 36.5128 12.5337C36.3265 10.1414 34.7042 7.7578 32.088 7.43422C30.6553 7.25707 30.3588 7.41427 29.7524 7.63052" fill="#ffffff"/>
<path d="M55.2046 35.942V14.8519H71.4007V20.0974H60.6123V23.1257H68.2102V28.0197H60.6123V35.942H55.2046ZM73.5638 28.0467C73.5638 32.2918 77.16 35.942 81.7295 35.942C83.1085 35.942 84.4063 35.6446 85.596 35.0497V35.942H89.8951L89.8681 20.3137H85.4879V21.0167C84.3252 20.4489 83.0544 20.1785 81.7295 20.1785C77.16 20.1785 73.5638 23.8287 73.5638 28.0467ZM84.4333 30.7235C83.7033 31.4265 82.811 31.8321 81.7295 31.8321C79.5934 31.8321 77.9441 30.0476 77.9441 28.0467C77.9441 26.0729 79.5934 24.2883 81.7295 24.2883C82.811 24.2883 83.7033 24.6669 84.4333 25.3699C84.893 25.8296 85.4879 26.8029 85.4879 27.3708V28.7497C85.4879 29.3175 84.893 30.2368 84.4333 30.7235ZM92.0582 28.0738C92.0582 32.3188 95.6544 35.969 100.224 35.969C101.576 35.969 102.847 35.6986 104.009 35.1308V35.942H108.39V35.6986C108.39 33.157 108.417 30.6154 108.417 28.0738C108.417 23.7746 108.39 19.4484 108.39 15.1493V14.8789H104.09V21.0978C102.901 20.5029 101.603 20.2055 100.224 20.2055C95.6544 20.2055 92.0582 23.8557 92.0582 28.0738ZM102.928 30.7506C102.198 31.4806 101.305 31.8592 100.224 31.8592C98.0879 31.8592 96.4385 30.0746 96.4385 28.0738C96.4385 26.0999 98.0879 24.3154 100.224 24.3154C101.305 24.3154 102.198 24.721 102.928 25.424C103.469 25.9647 104.009 26.9111 104.009 27.6141V28.5605C104.009 29.2635 103.469 30.2368 102.928 30.7506ZM110.58 17.2853C110.58 18.5562 111.607 19.6918 113.04 19.6918C114.446 19.6918 115.528 18.5562 115.528 17.2853C115.528 16.0416 114.446 14.8248 113.04 14.8248C111.607 14.8248 110.58 16.0416 110.58 17.2853ZM110.85 20.2866V35.942H115.23V20.2866H110.85ZM117.691 29.669V24.6128H125.884V29.669H117.691ZM139.241 36.3476C136.185 36.3476 133.563 35.266 131.372 33.13C129.155 30.9939 128.047 28.3982 128.047 25.3969C128.047 22.3956 129.155 19.7999 131.372 17.6639C133.563 15.5278 136.185 14.4463 139.241 14.4463C142.323 14.4463 144.973 15.5278 147.163 17.6639C148.812 19.2592 149.84 21.1248 150.218 23.2068H144.567C144.297 22.5038 143.864 21.8549 143.323 21.3141C142.215 20.2055 140.863 19.6647 139.241 19.6647C137.645 19.6647 136.293 20.2326 135.185 21.3411C134.076 22.4497 133.508 23.8017 133.508 25.3969C133.508 26.9922 134.076 28.3441 135.185 29.4527C136.293 30.5613 137.645 31.1291 139.241 31.1291C140.863 31.1291 142.215 30.5613 143.323 29.4527C144.081 28.6956 144.567 27.8574 144.811 26.857H150.326C150.029 29.2635 149.002 31.3454 147.163 33.13C144.973 35.266 142.323 36.3476 139.241 36.3476ZM152.49 35.969H156.87L156.816 14.8248H152.517V15.0952L152.49 35.969ZM159.033 17.2853C159.033 18.5562 160.06 19.6918 161.493 19.6918C162.899 19.6918 163.981 18.5562 163.981 17.2853C163.981 16.0416 162.899 14.8248 161.493 14.8248C160.06 14.8248 159.033 16.0416 159.033 17.2853ZM159.303 20.2866V35.942H163.684V20.2866H159.303ZM166.171 20.4218C166.171 25.5051 166.144 30.5883 166.144 35.6986V35.942H170.524V27.9386C170.524 25.9918 172.228 24.2883 174.31 24.2883C176.311 24.2883 177.879 25.8296 178.095 27.6682C178.122 27.9386 178.095 28.236 178.095 28.5064L178.122 30.4802V35.8879L182.502 35.942V27.8034C182.502 25.8295 181.502 23.8828 180.069 22.5038C178.501 20.9896 176.581 20.1785 174.31 20.1785C172.958 20.1785 171.66 20.4759 170.47 21.0708V20.2596H166.171V20.4218ZM184.666 17.2853C184.666 18.5562 185.693 19.6918 187.126 19.6918C188.532 19.6918 189.614 18.5562 189.614 17.2853C189.614 16.0416 188.532 14.8248 187.126 14.8248C185.693 14.8248 184.666 16.0416 184.666 17.2853ZM184.936 20.2866V35.942H189.316V20.2866H184.936ZM194.21 33.5626C195.778 35.0497 197.644 35.8879 199.888 35.8879C204.052 35.8879 207.486 32.9137 207.973 29.0742L208 28.7768H203.593L203.538 28.9931C203.16 30.6424 201.7 31.751 199.888 31.751C197.725 31.751 196.157 30.0476 196.157 28.0197C196.157 26.0188 197.725 24.3154 199.888 24.3154C201.511 24.3154 202.835 25.1806 203.403 26.5866L203.457 26.7489H207.946L207.892 26.4514C207.216 22.8553 203.755 20.1785 199.888 20.1785C195.373 20.1785 191.777 23.8557 191.777 28.0197C191.777 30.1828 192.588 32.0484 194.21 33.5626Z" fill="#ffffff"/>
</g>
<defs>
<clipPath id="clip0_622_20075">
<rect width="208" height="50.5613" fill="#ffffff"/>
</clipPath>
</defs>
</svg>
